<?xml version="1.0" encoding="UTF-8" standalone="yes"?>
<!DOCTYPE svg PUBLIC "-//W3C//DTD SVG 1.0//EN" "http://www.w3.org/TR/2001/REC-SVG-20010904/DTD/svg10.dtd">
<svg height="80cm" width="100cm" xmlns="http://www.w3.org/2000/svg" xmlns:svg="http://www.w3.org/2000/svg" xmlns:xlink="http://www.w3.org/1999/xlink">
	<title >I am a shelf</title>
	<g id="group_y" style="fill: none; stroke: black">
		<polygon points="10,10 10,-2 11.2496666666667,-2 11.2496666666667,17.5 16.7503333333333,17.5 16.7503333333333,-2 18,-2 18,10 10,10 " />
		<polygon points="28,10 28,-2 29.2496666666667,-2 29.2496666666667,17.5 34.7503333333333,17.5 34.7503333333333,-2 36,-2 36,10 28,10 " />
		<polygon points="46,10 46,-2 47.2496666666667,-2 47.2496666666667,17.5 52.7503333333333,17.5 52.7503333333333,-2 54,-2 54,10 46,10 " />
		<polygon points="10,27.5 47,27.5 47,30.1666666666667 27.5,30.1666666666667 27.5,32.8333333333333 47,32.8333333333333 47,35.5 10,35.5 10,32.8333333333333 29.5,32.8333333333333 29.5,30.1666666666667 10,30.1666666666667 10,27.5 " />
		<polygon points="18.75,30.1666666666667 38.25,30.1666666666667 38.25,32.8333333333333 18.75,32.8333333333333 18.75,30.1666666666667 " />
	</g>
	<!-- 
	Generated using the Perl SVG Module V2.54
	by Ronan Oger
	Info: http://www.roitsystems.com/
 -->
</svg>