<?xml version="1.0" encoding="UTF-8" standalone="yes"?>
<!DOCTYPE svg PUBLIC "-//W3C//DTD SVG 1.0//EN" "http://www.w3.org/TR/2001/REC-SVG-20010904/DTD/svg10.dtd">
<svg height="80cm" width="100cm" xmlns="http://www.w3.org/2000/svg" xmlns:svg="http://www.w3.org/2000/svg" xmlns:xlink="http://www.w3.org/1999/xlink">
	<title >I am a shelf</title>
	<g id="group_y" style="fill: none; stroke: black">
		<polygon points="10,10 10,665.5 248.583,665.5 248.583,685 491.417,685 491.417,665.5 730,665.5 730,10 10,10 " />
		<polygon points="740,10 740,665.5 978.583,665.5 978.583,685 1221.417,685 1221.417,665.5 1460,665.5 1460,10 740,10 " />
		<polygon points="1470,10 1470,665.5 1708.583,665.5 1708.583,685 1951.417,685 1951.417,665.5 2190,665.5 2190,10 1470,10 " />
		<polygon points="10,695 3340,695 3340,935 3320.5,935 3320.5,1175 3340,1175 3340,1415 10,1415 10,1175 29.5,1175 29.5,935 10,935 10,695 " />
		<polygon points="1665.25,935 1684.75,935 1684.75,1175 1665.25,1175 1665.25,935 " />
	</g>
	<!-- 
	Generated using the Perl SVG Module V2.54
	by Ronan Oger
	Info: http://www.roitsystems.com/
 -->
</svg>