<?xml version="1.0" encoding="UTF-8" standalone="yes"?>
<!DOCTYPE svg PUBLIC "-//W3C//DTD SVG 1.0//EN" "http://www.w3.org/TR/2001/REC-SVG-20010904/DTD/svg10.dtd">
<svg height="80cm" viewBox="0 0 1000 800" width="100cm" xmlns="http://www.w3.org/2000/svg" xmlns:svg="http://www.w3.org/2000/svg" xmlns:xlink="http://www.w3.org/1999/xlink">
	<title >I am a title</title>
	<g id="group_y" style="fill: none; stroke: black">
		<polygon points="10,10 10,188.65 39.2333333333333,188.65 39.2333333333333,194.15 69.6666666666667,194.15 69.6666666666667,188.65 98.9,188.65 98.9,10 10,10 " />
		<polygon points="108.9,10 108.9,188.65 138.133333333333,188.65 138.133333333333,194.15 168.566666666667,194.15 168.566666666667,188.65 197.8,188.65 197.8,10 108.9,10 " />
		<polygon points="207.8,10 207.8,188.65 237.033333333333,188.65 237.033333333333,194.15 267.466666666667,194.15 267.466666666667,188.65 296.7,188.65 296.7,10 207.8,10 " />
		<polygon points="10,204.15 975.2,204.15 975.2,233.783333333333 969.7,233.783333333333 969.7,263.416666666667 975.2,263.416666666667 975.2,293.05 10,293.05 10,263.416666666667 15.5,263.416666666667 15.5,233.783333333333 10,233.783333333333 10,204.15 " />
		<polygon points="489.85,233.783333333333 495.35,233.783333333333 495.35,263.416666666667 489.85,263.416666666667 489.85,233.783333333333 " />
	</g>
	<!-- 
	Generated using the Perl SVG Module V2.54
	by Ronan Oger
	Info: http://www.roitsystems.com/
 -->
</svg>