<?xml version="1.0" encoding="UTF-8" standalone="yes"?>
<!DOCTYPE svg PUBLIC "-//W3C//DTD SVG 1.0//EN" "http://www.w3.org/TR/2001/REC-SVG-20010904/DTD/svg10.dtd">
<svg height="80cm" width="100cm" xmlns="http://www.w3.org/2000/svg" xmlns:svg="http://www.w3.org/2000/svg" xmlns:xlink="http://www.w3.org/1999/xlink">
	<title >I am a shelf</title>
	<g id="group_y" style="fill: none; stroke: black">
		<polygon points="10,10 10,643 113.583,643 113.583,662.5 221.417,662.5 221.417,643 325,643 325,10 10,10 " />
		<polygon points="335,10 335,643 438.583,643 438.583,662.5 546.417,662.5 546.417,643 650,643 650,10 335,10 " />
		<polygon points="660,10 660,643 763.583,643 763.583,662.5 871.417,662.5 871.417,643 975,643 975,10 660,10 " />
		<polygon points="10,672.5 3430,672.5 3430,777.5 3410.5,777.5 3410.5,882.5 3430,882.5 3430,987.5 10,987.5 10,882.5 29.5,882.5 29.5,777.5 10,777.5 10,672.5 " />
		<polygon points="1710.25,777.5 1729.75,777.5 1729.75,882.5 1710.25,882.5 1710.25,777.5 " />
	</g>
	<!-- 
	Generated using the Perl SVG Module V2.54
	by Ronan Oger
	Info: http://www.roitsystems.com/
 -->
</svg>