<?xml version="1.0" encoding="UTF-8" standalone="yes"?>
<!DOCTYPE svg PUBLIC "-//W3C//DTD SVG 1.0//EN" "http://www.w3.org/TR/2001/REC-SVG-20010904/DTD/svg10.dtd">
<svg height="80cm" width="100cm" xmlns="http://www.w3.org/2000/svg" xmlns:svg="http://www.w3.org/2000/svg" xmlns:xlink="http://www.w3.org/1999/xlink">
	<title >I am a shelf</title>
	<g id="group_y" style="fill: none; stroke: black">
		<polygon points="10,10 10,-2.25 9.74966666666667,-2.25 9.74966666666667,17.25 13.7503333333333,17.25 13.7503333333333,-2.25 13.5,-2.25 13.5,10 10,10 " />
		<polygon points="23.5,10 23.5,-2.25 23.2496666666667,-2.25 23.2496666666667,17.25 27.2503333333333,17.25 27.2503333333333,-2.25 27,-2.25 27,10 23.5,10 " />
		<polygon points="37,10 37,-2.25 36.7496666666667,-2.25 36.7496666666667,17.25 40.7503333333333,17.25 40.7503333333333,-2.25 40.5,-2.25 40.5,10 37,10 " />
		<polygon points="10,27.25 48,27.25 48,28.4166666666667 28.5,28.4166666666667 28.5,29.5833333333333 48,29.5833333333333 48,30.75 10,30.75 10,29.5833333333333 29.5,29.5833333333333 29.5,28.4166666666667 10,28.4166666666667 10,27.25 " />
		<polygon points="19.25,28.4166666666667 38.75,28.4166666666667 38.75,29.5833333333333 19.25,29.5833333333333 19.25,28.4166666666667 " />
	</g>
	<!-- 
	Generated using the Perl SVG Module V2.54
	by Ronan Oger
	Info: http://www.roitsystems.com/
 -->
</svg>